#tb 0: 1/25
#media_type 0: video
#codec_id 0: rawvideo
#dimensions 0: 1920x1080
#sar 0: 0/1
0,          0,          0,        1,  6220800, 0x268e242f
0,          1,          1,        1,  6220800, 0x2d3a7a86
0,          2,          2,        1,  6220800, 0x2d5a77f7
0,          3,          3,        1,  6220800, 0x4a10d575
0,          4,          4,        1,  6220800, 0x77a7dddd
0,          5,          5,        1,  6220800, 0xd6eede86
0,          6,          6,        1,  6220800, 0x4ccc2ce8
0,          7,          7,        1,  6220800, 0xcf2a8f70
0,          8,          8,        1,  6220800, 0xa4a26d8f
0,          9,          9,        1,  6220800, 0xded512ca
0,         10,         10,        1,  6220800, 0xc7477b8d
0,         11,         11,        1,  6220800, 0x98d5306a
0,         12,         12,        1,  6220800, 0x99d119e8
0,         13,         13,        1,  6220800, 0x8c756f21
0,         14,         14,        1,  6220800, 0x3d50a18e
0,         15,         15,        1,  6220800, 0xabe73a35
0,         16,         16,        1,  6220800, 0x466af0f1
0,         17,         17,        1,  6220800, 0xffab5a21
0,         18,         18,        1,  6220800, 0x045a1362
0,         19,         19,        1,  6220800, 0x6699514d
0,         20,         20,        1,  6220800, 0x6bccaf73
0,         21,         21,        1,  6220800, 0xd82f54c9
0,         22,         22,        1,  6220800, 0xabdd18c1
0,         23,         23,        1,  6220800, 0x7abe6050
0,         24,         24,        1,  6220800, 0xe4069015
0,         25,         25,        1,  6220800, 0x77609193
0,         26,         26,        1,  6220800, 0xa62479ac
0,         27,         27,        1,  6220800, 0x9298b3d6
0,         28,         28,        1,  6220800, 0x6166b267
0,         29,         29,        1,  6220800, 0xe90105aa
0,         30,         30,        1,  6220800, 0xfa676fd4
0,         31,         31,        1,  6220800, 0xd3009c9d
